<mxfile host="app.diagrams.net" modified="2023-03-06T19:28:48.453Z" agent="5.0 (Macintosh; Intel Mac OS X 10_15_7) AppleWebKit/537.36 (KHTML, like Gecko) Chrome/110.0.0.0 Safari/537.36" etag="mq9TRLUkJwe4YNyMAs6T" version="21.0.2" type="github">
  <diagram name="Page-1" id="5xXigNw81EJupU0OhcUT">
    <mxGraphModel dx="1644" dy="1535" grid="1" gridSize="10" guides="1" tooltips="1" connect="1" arrows="1" fold="1" page="1" pageScale="1" pageWidth="850" pageHeight="1100" math="0" shadow="0">
      <root>
        <mxCell id="0" />
        <mxCell id="1" parent="0" />
        <mxCell id="4M5tQRGefW1LcBBxwHNN-3" value="Cliente personas &lt;br&gt;Banco" style="rounded=1;whiteSpace=wrap;html=1;verticalAlign=top;fontColor=#000000;strokeColor=#5C5C5C;fontStyle=1;fontFamily=Tahoma;" parent="1" vertex="1">
          <mxGeometry x="-260" y="210" width="140" height="80" as="geometry" />
        </mxCell>
        <mxCell id="4M5tQRGefW1LcBBxwHNN-4" value="" style="ellipse;whiteSpace=wrap;html=1;aspect=fixed;fontColor=#000000;strokeColor=#5C5C5C;fontStyle=1;fontFamily=Tahoma;" parent="1" vertex="1">
          <mxGeometry x="-215" y="160" width="50" height="50" as="geometry" />
        </mxCell>
        <mxCell id="4M5tQRGefW1LcBBxwHNN-7" value="" style="edgeStyle=orthogonalEdgeStyle;rounded=0;orthogonalLoop=1;jettySize=auto;html=1;dashed=1;dashPattern=1 1;endArrow=classicThin;endFill=1;fontColor=#4D4D4D;strokeColor=#999999;fontStyle=1;fontFamily=Tahoma;fontSize=13;strokeWidth=2;" parent="1" source="4M5tQRGefW1LcBBxwHNN-5" target="4M5tQRGefW1LcBBxwHNN-6" edge="1">
          <mxGeometry relative="1" as="geometry" />
        </mxCell>
        <mxCell id="4M5tQRGefW1LcBBxwHNN-16" style="rounded=0;orthogonalLoop=1;jettySize=auto;html=1;entryX=0.5;entryY=0;entryDx=0;entryDy=0;dashed=1;dashPattern=1 1;endArrow=classicThin;endFill=1;fontColor=#4D4D4D;strokeColor=#999999;fontStyle=1;fontFamily=Tahoma;fontSize=13;strokeWidth=2;" parent="1" source="4M5tQRGefW1LcBBxwHNN-5" target="4M5tQRGefW1LcBBxwHNN-13" edge="1">
          <mxGeometry relative="1" as="geometry" />
        </mxCell>
        <mxCell id="4M5tQRGefW1LcBBxwHNN-17" style="rounded=0;orthogonalLoop=1;jettySize=auto;html=1;entryX=0.5;entryY=0;entryDx=0;entryDy=0;dashed=1;dashPattern=1 1;endArrow=classicThin;endFill=1;fontColor=#4D4D4D;strokeColor=#999999;fontStyle=1;fontFamily=Tahoma;fontSize=13;strokeWidth=2;" parent="1" source="4M5tQRGefW1LcBBxwHNN-5" target="4M5tQRGefW1LcBBxwHNN-12" edge="1">
          <mxGeometry relative="1" as="geometry" />
        </mxCell>
        <mxCell id="4M5tQRGefW1LcBBxwHNN-5" value="Sistema de software" style="rounded=1;whiteSpace=wrap;html=1;fontColor=#4D4D4D;strokeColor=#999999;fontStyle=1;fontFamily=Tahoma;fontSize=13;strokeWidth=2;" parent="1" vertex="1">
          <mxGeometry x="267" y="120" width="545" height="49" as="geometry" />
        </mxCell>
        <mxCell id="4M5tQRGefW1LcBBxwHNN-9" value="" style="edgeStyle=orthogonalEdgeStyle;rounded=0;orthogonalLoop=1;jettySize=auto;html=1;dashed=1;dashPattern=1 1;endArrow=classicThin;endFill=1;fontColor=#4D4D4D;strokeColor=#999999;fontStyle=1;fontFamily=Tahoma;fontSize=13;strokeWidth=2;" parent="1" source="4M5tQRGefW1LcBBxwHNN-6" target="4M5tQRGefW1LcBBxwHNN-8" edge="1">
          <mxGeometry relative="1" as="geometry" />
        </mxCell>
        <mxCell id="4M5tQRGefW1LcBBxwHNN-18" style="rounded=0;orthogonalLoop=1;jettySize=auto;html=1;entryX=0.5;entryY=0;entryDx=0;entryDy=0;dashed=1;dashPattern=1 1;endArrow=classicThin;endFill=1;fontColor=#4D4D4D;strokeColor=#999999;fontStyle=1;fontFamily=Tahoma;fontSize=13;strokeWidth=2;" parent="1" source="4M5tQRGefW1LcBBxwHNN-6" target="4M5tQRGefW1LcBBxwHNN-14" edge="1">
          <mxGeometry relative="1" as="geometry" />
        </mxCell>
        <mxCell id="4M5tQRGefW1LcBBxwHNN-19" style="rounded=0;orthogonalLoop=1;jettySize=auto;html=1;entryX=0.5;entryY=0;entryDx=0;entryDy=0;dashed=1;dashPattern=1 1;endArrow=classicThin;endFill=1;fontColor=#4D4D4D;strokeColor=#999999;fontStyle=1;fontFamily=Tahoma;fontSize=13;strokeWidth=2;" parent="1" source="4M5tQRGefW1LcBBxwHNN-6" target="4M5tQRGefW1LcBBxwHNN-15" edge="1">
          <mxGeometry relative="1" as="geometry" />
        </mxCell>
        <mxCell id="4M5tQRGefW1LcBBxwHNN-6" value="Aplicaci贸n/contenedor" style="rounded=1;whiteSpace=wrap;html=1;fontColor=#4D4D4D;strokeColor=#999999;fontStyle=1;fontFamily=Tahoma;fontSize=13;strokeWidth=2;" parent="1" vertex="1">
          <mxGeometry x="460" y="230" width="160" height="60" as="geometry" />
        </mxCell>
        <mxCell id="4M5tQRGefW1LcBBxwHNN-11" value="" style="edgeStyle=orthogonalEdgeStyle;rounded=0;orthogonalLoop=1;jettySize=auto;html=1;dashed=1;dashPattern=1 1;endArrow=classicThin;endFill=1;fontColor=#4D4D4D;strokeColor=#999999;fontStyle=1;fontFamily=Tahoma;fontSize=13;strokeWidth=2;" parent="1" source="4M5tQRGefW1LcBBxwHNN-8" target="4M5tQRGefW1LcBBxwHNN-10" edge="1">
          <mxGeometry relative="1" as="geometry" />
        </mxCell>
        <mxCell id="4M5tQRGefW1LcBBxwHNN-8" value="Componente" style="rounded=1;whiteSpace=wrap;html=1;fontColor=#4D4D4D;strokeColor=#999999;fontStyle=1;fontFamily=Tahoma;fontSize=13;strokeWidth=2;" parent="1" vertex="1">
          <mxGeometry x="460" y="350" width="160" height="60" as="geometry" />
        </mxCell>
        <mxCell id="4M5tQRGefW1LcBBxwHNN-10" value="C贸digo" style="rounded=1;whiteSpace=wrap;html=1;fontColor=#4D4D4D;strokeColor=#999999;fontStyle=1;fontFamily=Tahoma;fontSize=13;strokeWidth=2;" parent="1" vertex="1">
          <mxGeometry x="459.5" y="470" width="160" height="60" as="geometry" />
        </mxCell>
        <mxCell id="4M5tQRGefW1LcBBxwHNN-12" value="Aplicaci贸n/contenedor" style="rounded=1;whiteSpace=wrap;html=1;fontColor=#4D4D4D;strokeColor=#999999;fontStyle=1;fontFamily=Tahoma;fontSize=13;strokeWidth=2;" parent="1" vertex="1">
          <mxGeometry x="651" y="230" width="160" height="60" as="geometry" />
        </mxCell>
        <mxCell id="4M5tQRGefW1LcBBxwHNN-13" value="Aplicaci贸n/contenedor" style="rounded=1;whiteSpace=wrap;html=1;fontColor=#4D4D4D;strokeColor=#999999;fontStyle=1;fontFamily=Tahoma;fontSize=13;strokeWidth=2;" parent="1" vertex="1">
          <mxGeometry x="265" y="230" width="160" height="60" as="geometry" />
        </mxCell>
        <mxCell id="4M5tQRGefW1LcBBxwHNN-14" value="Componente externo" style="rounded=1;whiteSpace=wrap;html=1;fontColor=#4D4D4D;strokeColor=#999999;fontStyle=1;fontFamily=Tahoma;fontSize=13;strokeWidth=2;" parent="1" vertex="1">
          <mxGeometry x="267" y="350" width="160" height="60" as="geometry" />
        </mxCell>
        <mxCell id="4M5tQRGefW1LcBBxwHNN-15" value="Componente externo" style="rounded=1;whiteSpace=wrap;html=1;fontColor=#4D4D4D;strokeColor=#999999;fontStyle=1;fontFamily=Tahoma;fontSize=13;strokeWidth=2;" parent="1" vertex="1">
          <mxGeometry x="650" y="350" width="160" height="60" as="geometry" />
        </mxCell>
        <mxCell id="4M5tQRGefW1LcBBxwHNN-20" value="Color gris: 5C5C5C" style="text;html=1;align=center;verticalAlign=middle;resizable=0;points=[];autosize=1;strokeColor=#5C5C5C;fillColor=none;fontColor=#000000;fontStyle=1;fontFamily=Tahoma;" parent="1" vertex="1">
          <mxGeometry x="262" y="-10" width="140" height="30" as="geometry" />
        </mxCell>
        <mxCell id="4M5tQRGefW1LcBBxwHNN-21" value="&lt;span style=&quot;font-size: 13px;&quot;&gt;&lt;font color=&quot;#007fff&quot;&gt;Flujo Principal&lt;/font&gt;&lt;/span&gt;" style="rounded=1;whiteSpace=wrap;html=1;fillColor=none;verticalAlign=top;fontSize=13;fontStyle=1;fontFamily=Tahoma;strokeColor=#007FFF;fontColor=#4D4D4D;strokeWidth=2;" parent="1" vertex="1">
          <mxGeometry x="445" y="80" width="190" height="470" as="geometry" />
        </mxCell>
        <mxCell id="1-YIFYFC2_hRIyP0TVN2-1" value="&lt;span style=&quot;font-size: 13px;&quot;&gt;&lt;font color=&quot;#007fff&quot;&gt;Flujo Externo&lt;/font&gt;&lt;/span&gt;" style="rounded=1;whiteSpace=wrap;html=1;fillColor=none;verticalAlign=top;fontSize=13;fontStyle=1;fontFamily=Tahoma;strokeColor=#007FFF;fontColor=#4D4D4D;strokeWidth=2;" vertex="1" parent="1">
          <mxGeometry x="250" y="180" width="190" height="260" as="geometry" />
        </mxCell>
      </root>
    </mxGraphModel>
  </diagram>
</mxfile>
